<svg width="256" height="256" viewBox="0 0 256 256" fill="none" xmlns="http://www.w3.org/2000/svg">
  <defs>
    <linearGradient id="logoGradient" x1="36" y1="28" x2="212" y2="228" gradientUnits="userSpaceOnUse">
      <stop stop-color="#8B5CF6" />
      <stop offset="0.55" stop-color="#6366F1" />
      <stop offset="1" stop-color="#0EA5E9" />
    </linearGradient>
    <linearGradient id="logoGlow" x1="50" y1="40" x2="206" y2="216" gradientUnits="userSpaceOnUse">
      <stop stop-color="white" stop-opacity="0.88" />
      <stop offset="1" stop-color="white" stop-opacity="0.18" />
    </linearGradient>
  </defs>

  <rect x="20" y="20" width="216" height="216" rx="56" fill="#0B1222" />
  <rect x="24" y="24" width="208" height="208" rx="52" fill="url(#logoGradient)" />
  <path
    d="M78 64H130C163.137 64 190 90.8629 190 124C190 157.137 163.137 184 130 184H108V150H130C144.359 150 156 138.359 156 124C156 109.641 144.359 98 130 98H112V212H78V64Z"
    fill="white"
  />
  <path
    d="M98 48C129.689 48 158.538 61.108 179.102 82.241C183.137 86.387 182.502 92.994 177.685 96.198C172.867 99.403 166.461 98.306 162.463 94.124C146.019 76.923 122.764 66.25 96.999 66.25H78.5C71.044 66.25 65 60.206 65 52.75C65 45.294 71.044 39.25 78.5 39.25H97C97.333 39.25 97.667 39.25 98 39.25V48Z"
    fill="url(#logoGlow)"
    opacity="0.62"
  />
  <circle cx="186" cy="74" r="10" fill="white" fill-opacity="0.94" />
  <circle cx="202" cy="102" r="6" fill="white" fill-opacity="0.72" />
  <circle cx="170" cy="50" r="5" fill="white" fill-opacity="0.54" />
</svg>
